<svg xmlns="http://www.w3.org/2000/svg" viewBox="0 0 24 24" fill="none" stroke="#A66E53" stroke-width="1.5" stroke-linecap="round" stroke-linejoin="round">
  <path d="M12 22C17.5228 22 22 17.5228 22 12C22 6.47715 17.5228 2 12 2C6.47715 2 2 6.47715 2 12C2 17.5228 6.47715 22 12 22Z" stroke-opacity="0.2"/>
  <path d="M12 6C12 6 9.5 10 9.5 12C9.5 13.3807 10.6193 14.5 12 14.5C13.3807 14.5 14.5 13.3807 14.5 12C14.5 10 12 6 12 6Z"/>
  <path d="M12 8C12 8 10.5 11 10.5 12.5C10.5 13.3284 11.1716 14 12 14C12.8284 14 13.5 13.3284 13.5 12.5C13.5 11 12 8 12 8Z" fill="#A66E53" fill-opacity="0.1"/>
  <path d="M8 14C8 14 10 15 12 15C14 15 16 14 16 14" stroke-opacity="0.5"/>
</svg>
